<svg xmlns="http://www.w3.org/2000/svg" width="1200" height="250" viewBox="0 0 1200 250" preserveAspectRatio="xMidYMid slice">
  <defs>
    <linearGradient id="bg" x1="0%" y1="0%" x2="100%" y2="100%">
      <stop offset="0%" stop-color="#fff0f6" />
      <stop offset="30%" stop-color="#ffdcec" />
      <stop offset="65%" stop-color="#ffdae8" />
      <stop offset="100%" stop-color="#f8ebfb" />
    </linearGradient>
    <radialGradient id="moonGlow" cx="70%" cy="20%" r="60%">
      <stop offset="0%" stop-color="rgba(255, 212, 233, 0.55)" />
      <stop offset="100%" stop-color="rgba(255, 238, 245, 0)" />
    </radialGradient>
    <linearGradient id="cloud1" x1="0%" y1="0%" x2="100%" y2="100%">
      <stop offset="0%" stop-color="rgba(255, 203, 233, 0.25)" />
      <stop offset="100%" stop-color="rgba(206, 187, 238, 0.00)" />
    </linearGradient>
    <linearGradient id="cloud2" x1="0%" y1="0%" x2="100%" y2="100%">
      <stop offset="0%" stop-color="rgba(218, 230, 250, 0.20)" />
      <stop offset="100%" stop-color="rgba(197, 230, 251, 0.00)" />
    </linearGradient>
    <linearGradient id="halo" cx="50%" cy="50%" r="60%">
      <stop offset="0%" stop-color="rgba(252, 220, 237, 0.55)" />
      <stop offset="100%" stop-color="rgba(252, 220, 237, 0)" />
    </linearGradient>
    <linearGradient id="shine" x1="0%" y1="0%" x2="100%" y2="0%">
      <stop offset="0%" stop-color="rgba(255, 255, 255, 0.12)" />
      <stop offset="50%" stop-color="rgba(255, 255, 255, 0.00)" />
      <stop offset="100%" stop-color="rgba(255, 255, 255, 0.12)" />
    </linearGradient>
  </defs>

  <rect width="1200" height="250" fill="url(#bg)" />
  <ellipse cx="900" cy="45" rx="210" ry="95" fill="url(#moonGlow)" />

  <path d="M0 138 Q 140 84 280 122 Q 430 158 600 116 Q 770 64 950 111 Q 1080 146 1200 128 L 1200 250 L 0 250 Z"
    fill="url(#cloud1)">
    <animate attributeName="d"
      dur="8s"
      repeatCount="indefinite"
      values="
      M0 138 Q 140 84 280 122 Q 430 158 600 116 Q 770 64 950 111 Q 1080 146 1200 128 L 1200 250 L 0 250 Z;
      M0 134 Q 140 92 280 132 Q 430 162 600 122 Q 770 70 950 118 Q 1080 140 1200 132 L 1200 250 L 0 250 Z;
      M0 138 Q 140 84 280 122 Q 430 158 600 116 Q 770 64 950 111 Q 1080 146 1200 128 L 1200 250 L 0 250 Z"
      />
  </path>

  <path d="M0 165 Q 130 142 260 156 Q 430 184 610 150 Q 770 108 980 166 Q 1120 200 1200 164 L 1200 250 L 0 250 Z"
    fill="url(#cloud2)">
    <animate attributeName="d"
      dur="10s"
      repeatCount="indefinite"
      values="
      M0 165 Q 130 142 260 156 Q 430 184 610 150 Q 770 108 980 166 Q 1120 200 1200 164 L 1200 250 L 0 250 Z;
      M0 170 Q 130 148 260 150 Q 430 188 610 146 Q 770 115 980 172 Q 1120 195 1200 170 L 1200 250 L 0 250 Z;
      M0 165 Q 130 142 260 156 Q 430 184 610 150 Q 770 108 980 166 Q 1120 200 1200 164 L 1200 250 L 0 250 Z"
      />
  </path>

  <g opacity="0.85">
    <circle cx="220" cy="72" r="7" fill="#d8acd7">
      <animate attributeName="r" values="4;7;4" dur="3.2s" repeatCount="indefinite" />
      <animate attributeName="opacity" values="0.25;0.85;0.25" dur="3.2s" repeatCount="indefinite" />
    </circle>
    <circle cx="510" cy="42" r="5" fill="#f2b9d6">
      <animate attributeName="r" values="3;6;3" dur="2.6s" repeatCount="indefinite" />
      <animate attributeName="opacity" values="0.2;0.9;0.2" dur="2.6s" repeatCount="indefinite" />
    </circle>
    <circle cx="900" cy="95" r="4.5" fill="#d6c2f2">
      <animate attributeName="r" values="3;5;3" dur="2.8s" repeatCount="indefinite" />
      <animate attributeName="opacity" values="0.22;0.8;0.22" dur="2.8s" repeatCount="indefinite" />
    </circle>
  </g>

  <g opacity="0.75">
    <path d="M1030 44 C1070 44,1070 88,1030 90 C1012 91,1008 59,1030 44 Z" fill="url(#halo)" />
  </g>

  <g>
    <g>
      <animateTransform attributeName="transform" type="translate" dur="5.2s" repeatCount="indefinite"
        values="920 62;920 48;920 62;920 54;920 62" />

      <ellipse cx="11" cy="206" rx="60" ry="15" fill="#ffc7de" opacity="0.45" />

      <path d="M-36 132 C-40 170,5 178,40 150 C42 196,78 186,74 146 C70 108,10 108,-36 132 Z"
        fill="#f8bbdd"/>

      <path d="M-52 133 C-58 120,-42 96,-20 98 C-6 101,8 99,12 98 C21 98,36 100,44 108 C59 118,62 134,56 146 C50 158,28 155,8 156 C-13 157,-26 148,-38 134 Z"
        fill="#7f5b93" opacity="0.86"/>

      <ellipse cx="12" cy="106" rx="31" ry="35" fill="#ffe8d5" />
      <ellipse cx="12" cy="115" rx="11" ry="14" fill="#ff4f7d" opacity="0.18" />

      <path d="M-18 74 C-16 52,40 52,42 74 C49 78,44 90,35 94 C33 82,24 78,16 84 C14 73,6 72,-4 72 C-12 72,-20 78,-24 84 C-32 78,-40 82,-43 94 C-48 90,-52 78,-18 74 Z"
        fill="#5f4a80" />
      <path d="M-11 74 C-8 66,5 66,8 74 C16 64,26 66,33 78 C24 80,14 70,4 70 C-8 70,-14 80,-11 74 Z"
        fill="#6f5893" opacity="0.9" />
      <ellipse cx="-7" cy="74" rx="8" ry="5" fill="#5f4a80" />
      <ellipse cx="31" cy="74" rx="8" ry="5" fill="#5f4a80" />

      <circle cx="4" cy="104" r="3" fill="#3b2c58" />
      <circle cx="25" cy="104" r="3" fill="#3b2c58" />
      <ellipse cx="4" cy="105" rx="7" ry="6" fill="#f8f8ff" />
      <ellipse cx="25" cy="105" rx="7" ry="6" fill="#f8f8ff" />
      <circle cx="5" cy="105" r="2.6" fill="#2f224d" />
      <circle cx="24" cy="105" r="2.6" fill="#2f224d" />

      <ellipse cx="4" cy="111" rx="2.6" ry="1.8" fill="#000000" />
      <ellipse cx="24" cy="111" rx="2.6" ry="1.8" fill="#000000" />

      <path d="M7 118 C12 124,18 124,23 118" fill="none" stroke="#6f4f69" stroke-width="1.6" stroke-linecap="round" />

      <path d="M-2 133 L-9 141 C-11 146,-6 150,-1 148 Z" fill="#ffc8a6" />
      <path d="M26 133 L33 141 C35 146,30 150,25 148 Z" fill="#ffc8a6" />
      <path d="M2 130 L 20 130 L 18 150 L 4 150 Z" fill="#f6f2f7" />
      <path d="M-2 126 Q 12 132,26 126" fill="none" stroke="#2f224d" stroke-width="1.2" stroke-linecap="round" />

      <path d="M-38 132 C-36 116,-18 114,-8 119 L-8 142 C-20 143,-34 134,-38 132 Z" fill="#f8bbe6" />
      <path d="M44 132 C46 116,64 114,72 119 L72 142 C60 143,46 134,44 132 Z" fill="#f8bbe6" />
      <path d="M-8 148 L2 180 L22 180 L32 148 Z" fill="#ffd4ef" />
    </g>
  </g>

  <g fill="#f9bedf" opacity="0.86">
    <animateTransform attributeName="transform" attributeType="XML" type="translate" dur="6s" repeatCount="indefinite"
      values="0 0; 5 4; 0 0; 3 2; 0 0" />
    <ellipse cx="1100" cy="32" rx="6" ry="3" />
    <ellipse cx="1084" cy="44" rx="5" ry="2.8" />
    <ellipse cx="1120" cy="48" rx="4.4" ry="2.5" />
  </g>

  <rect x="0" y="0" width="1200" height="250" fill="url(#shine)" />

  <text x="72" y="93" font-size="56" font-family="'Segoe UI', 'Poppins', 'Noto Sans SC', sans-serif" fill="#8b7cc8" font-weight="700" letter-spacing="0.8">
    Boyan Li
  </text>
  <text x="74" y="138" font-size="27" font-family="'Segoe UI', 'Poppins', 'Noto Sans SC', sans-serif" fill="#aa8bc9" opacity="0.95">
    Text-to-SQL · Data Agents · Cute Data Intelligence
  </text>

  <text x="74" y="190" font-size="22" font-family="'Segoe UI', 'Poppins', 'Noto Sans SC', sans-serif" fill="rgba(146,121,189,0.9)">
    HKUST (Guangzhou) · Data Science and Analytics
  </text>

  <g opacity="0.55" fill="rgba(234,212,250,0.52)">
    <path d="M64 202 C66 198 72 198 74 202 L76 214 C77 218 73 221 70 219 C67 221 63 218 64 214 Z" />
    <path d="M95 204 C98 200 103 200 106 204 L108 216 C109 220 105 223 102 221 C99 223 95 220 96 216 Z" />
    <path d="M124 203 C127 199 133 198 136 202 L138 214 C139 218 135 221 132 219 C129 221 125 218 126 214 Z" />
  </g>
</svg>
